<svg viewBox="0 0 28 28" fill="none" xmlns="http://www.w3.org/2000/svg">
<path d="M14 0.666664C11.3629 0.666664 8.78506 1.44865 6.5924 2.91374C4.39974 4.37882 2.69078 6.4612 1.68161 8.89755C0.672441 11.3339 0.408397 14.0148 0.922866 16.6012C1.43734 19.1876 2.70721 21.5634 4.57191 23.4281C6.43661 25.2928 8.81239 26.5627 11.3988 27.0771C13.9852 27.5916 16.6661 27.3276 19.1025 26.3184C21.5388 25.3092 23.6212 23.6003 25.0863 21.4076C26.5513 19.2149 27.3333 16.6371 27.3333 14C27.3333 12.249 26.9885 10.5152 26.3184 8.89755C25.6483 7.27988 24.6662 5.81002 23.4281 4.57191C22.19 3.33379 20.7201 2.35167 19.1025 1.6816C17.4848 1.01154 15.751 0.666664 14 0.666664ZM14 24.6667C11.171 24.6667 8.45792 23.5429 6.45753 21.5425C4.45714 19.5421 3.33334 16.829 3.33334 14C3.33039 11.6311 4.12402 9.33006 5.58667 7.46666L20.5333 22.4133C18.6699 23.876 16.3689 24.6696 14 24.6667ZM22.4133 20.5333L7.46667 5.58666C9.33006 4.12402 11.6311 3.33038 14 3.33333C16.829 3.33333 19.5421 4.45714 21.5425 6.45753C23.5429 8.45791 24.6667 11.171 24.6667 14C24.6696 16.3689 23.876 18.6699 22.4133 20.5333Z" fill="currentColor"/>
</svg>
