<svg viewBox="0 0 64 64" fill="none" xmlns="http://www.w3.org/2000/svg">
<g>
<path d="M21.5015 30.3346C21.3731 29.9439 21.4052 29.5182 21.5907 29.1512C21.7761 28.7842 22.0998 28.5059 22.4905 28.3775L31.9177 25.2796C32.3084 25.1512 32.7341 25.1833 33.1011 25.3687C33.4681 25.5542 33.7464 25.8779 33.8748 26.2685L36.7791 35.1066C36.9075 35.4973 36.8754 35.9229 36.69 36.2899C36.5045 36.657 36.1808 36.9353 35.7902 37.0637L26.3629 40.1616C25.9722 40.29 25.5466 40.2579 25.1795 40.0724C24.8125 39.887 24.5342 39.5633 24.4058 39.1726L21.5015 30.3346ZM26.8678 36.7315L33.349 34.6017L31.4128 28.7096L24.9316 30.8395L26.8678 36.7315Z" fill="currentColor"/>
<path d="M8.53526 26.4677C8.90616 22.7291 11.303 18.9972 15.2301 17.7067L38.2091 10.1555C42.4425 8.76436 48.1953 10.7452 49.9514 16.0893C50.9738 19.2003 50.0991 22.4091 49.3239 24.1523C49.8338 25.7735 50.6014 27.8911 51.4332 30.154L51.6842 30.8385C52.5305 33.1457 53.4098 35.5431 54.0797 37.5818C54.6993 39.4672 55.0847 41.2958 54.1878 42.8178C53.7414 43.575 53.0723 44.0918 52.3528 44.485C51.6442 44.8713 50.7808 45.1941 49.8263 45.5078L26.2581 53.2526C23.477 54.1665 21.4089 53.9224 19.9815 52.6876C18.851 51.7109 18.408 50.2832 18.1981 49.5949L13.6984 35.9018C9.70471 33.95 8.17956 30.0935 8.53526 26.4677ZM16.1982 20.6527C13.644 21.4921 11.8965 24.0216 11.622 26.7721C11.3586 29.4471 12.5094 32.0948 15.547 33.3325C15.7551 33.4174 15.9422 33.5466 16.0954 33.711C16.2486 33.8753 16.3643 34.0711 16.4344 34.2846L21.1461 48.6229C21.4085 49.4213 21.5885 49.979 22.0077 50.3407C22.29 50.5841 23.0599 51.0395 25.29 50.3066L42.9661 44.498C43.8853 44.1959 44.5002 43.9514 44.914 43.7208C45.3171 43.497 45.4069 43.3532 45.4326 43.3023C45.4593 43.2544 45.5257 43.0987 45.4707 42.6435C45.4168 42.1716 45.2529 41.5236 44.9441 40.5839C44.4726 39.1491 43.939 37.5651 43.4006 35.9664C42.3015 32.6913 41.1733 29.3376 40.4772 26.9909C40.3635 26.611 40.3996 26.202 40.5782 25.8479C40.7364 25.5348 40.8936 25.2481 41.0409 24.9712C41.4372 24.2404 41.7822 23.6015 42.019 22.7827C42.3077 21.7739 42.4023 20.5122 41.8263 18.7593C41.5611 17.9114 41.0985 17.1385 40.4764 16.5042C39.8543 15.8699 39.0905 15.3924 38.2478 15.1108C36.6443 14.5545 34.9043 14.5289 33.2851 15.0378L16.1982 20.6527Z" fill="currentColor"/>
</g>
</svg>
