<svg  viewBox="0 0 16 16" fill="none" xmlns="http://www.w3.org/2000/svg">
<path d="M8.93999 8L13.14 3.80667C13.2655 3.68113 13.3361 3.51087 13.3361 3.33333C13.3361 3.1558 13.2655 2.98554 13.14 2.86C13.0145 2.73447 12.8442 2.66394 12.6667 2.66394C12.4891 2.66394 12.3189 2.73447 12.1933 2.86L8 7.06L3.80666 2.86C3.68113 2.73447 3.51086 2.66394 3.33333 2.66394C3.15579 2.66394 2.98553 2.73447 2.85999 2.86C2.73446 2.98554 2.66393 3.1558 2.66393 3.33333C2.66393 3.51087 2.73446 3.68113 2.85999 3.80667L7.06 8L2.85999 12.1933C2.79751 12.2553 2.74791 12.329 2.71407 12.4103C2.68022 12.4915 2.6628 12.5787 2.6628 12.6667C2.6628 12.7547 2.68022 12.8418 2.71407 12.9231C2.74791 13.0043 2.79751 13.078 2.85999 13.14C2.92197 13.2025 2.9957 13.2521 3.07694 13.2859C3.15818 13.3198 3.24532 13.3372 3.33333 13.3372C3.42134 13.3372 3.50847 13.3198 3.58971 13.2859C3.67095 13.2521 3.74469 13.2025 3.80666 13.14L8 8.94L12.1933 13.14C12.2553 13.2025 12.329 13.2521 12.4103 13.2859C12.4915 13.3198 12.5787 13.3372 12.6667 13.3372C12.7547 13.3372 12.8418 13.3198 12.923 13.2859C13.0043 13.2521 13.078 13.2025 13.14 13.14C13.2025 13.078 13.2521 13.0043 13.2859 12.9231C13.3198 12.8418 13.3372 12.7547 13.3372 12.6667C13.3372 12.5787 13.3198 12.4915 13.2859 12.4103C13.2521 12.329 13.2025 12.2553 13.14 12.1933L8.93999 8Z" fill="currentColor"/>
</svg>
